<svg xmlns="http://www.w3.org/2000/svg" viewBox="0 0 340.16 218.27"><defs><style>.cls-1,.cls-2{fill:#00878a;}.cls-1{fill-rule:evenodd;}</style></defs><title>Asset 10</title><g id="Layer_2" data-name="Layer 2"><g id="Layer_1-2" data-name="Layer 1"><path class="cls-1" d="M86.54,84.57l1.38.85a45.39,45.39,0,0,1,9.19,7.8A53.58,53.58,0,0,1,105.2,105a36,36,0,0,1,3.71,16.7,39,39,0,0,1-4.39,18.06,46.65,46.65,0,0,1-11.75,14.59A56.13,56.13,0,0,1,75.57,164a61.84,61.84,0,0,1-21,3.53H0V1.84H51.35a61.8,61.8,0,0,1,21,3.53A57.78,57.78,0,0,1,89.65,15a46.41,46.41,0,0,1,11.87,14.48,38.75,38.75,0,0,1,4.4,18.19,41.84,41.84,0,0,1-3,16.34,47.74,47.74,0,0,1-7.05,12,42,42,0,0,1-8.24,7.85l-1.07.74M26.4,75.84h25a27.78,27.78,0,0,0,11-2.14,28.5,28.5,0,0,0,9-6.08,28,28,0,0,0,8.22-20,27.87,27.87,0,0,0-2.15-10.89,26.85,26.85,0,0,0-6-8.91,29.41,29.41,0,0,0-9-6,27.61,27.61,0,0,0-11-2.15h-25Zm168.36,17.9H169.81a60.14,60.14,0,0,1-21-3.66,56.77,56.77,0,0,1-17.2-9.89,48.36,48.36,0,0,1-11.7-14.55,38.23,38.23,0,0,1-4.4-18V1.84H142.1V48.13a26.89,26.89,0,0,0,8.19,19.57,30.66,30.66,0,0,0,9.13,6.13,26.75,26.75,0,0,0,10.84,2.24h25V1.84h25.94V124a37.94,37.94,0,0,1-4.4,17.73A47.06,47.06,0,0,1,205,156.17a56.33,56.33,0,0,1-17.2,9.65,62.08,62.08,0,0,1-21,3.53H163.5v-17.9h3.32a27.06,27.06,0,0,0,10.76-2.14,28.25,28.25,0,0,0,8.84-6,29.29,29.29,0,0,0,6.09-9,26.59,26.59,0,0,0,2.25-10.84Zm143.31-61L314.12,44.56l-.77-4.35a24.87,24.87,0,0,0-2.76-7.4,28.77,28.77,0,0,0-5.67-7.31,30.34,30.34,0,0,0-8.3-5.49,25.8,25.8,0,0,0-10.8-2.11,27.38,27.38,0,0,0-11.08,2.24,28,28,0,0,0-8.84,6.06,28.58,28.58,0,0,0-5.86,9,27.16,27.16,0,0,0-2.16,10.66c0,4.91,1.38,9.25,5,12.62a53.24,53.24,0,0,0,14.39,9.18c6.37,2.87,12.89,5.41,19.49,7.71a114.62,114.62,0,0,1,20.36,9.35,52.67,52.67,0,0,1,16.3,14.83c5,7,6.71,15.52,6.71,24a39,39,0,0,1-4.39,18.06A46.76,46.76,0,0,1,324,156.17a56.5,56.5,0,0,1-17.21,9.65,64.23,64.23,0,0,1-42,0,57.78,57.78,0,0,1-17.3-9.63,46.52,46.52,0,0,1-11.87-14.48,38.32,38.32,0,0,1-3.33-8.88v0l25.56-12.61v3.32a27.21,27.21,0,0,0,2.25,11.07,27.84,27.84,0,0,0,6.05,8.84,29.19,29.19,0,0,0,8.88,5.88,27.06,27.06,0,0,0,10.76,2.14,28,28,0,0,0,19.83-8.1,28.08,28.08,0,0,0,8.11-19.83c0-4.48-.69-9.23-3-13.15a29.33,29.33,0,0,0-8.27-9,55.77,55.77,0,0,0-12.37-6.62q-7.36-2.86-14.82-5.47-7.62-2.65-15.1-5.69a58,58,0,0,1-13.89-7.93,37,37,0,0,1-10.09-12.1c-2.86-5.43-3.83-11.66-3.83-17.75a39.63,39.63,0,0,1,4.27-18.16,46.15,46.15,0,0,1,11.5-14.47A55.19,55.19,0,0,1,265,3.54,59.87,59.87,0,0,1,285.82,0a60.48,60.48,0,0,1,20.67,3.3,59.73,59.73,0,0,1,15.21,7.93,47.08,47.08,0,0,1,10,9.78,42,42,0,0,1,5.23,8.88ZM26.4,93.74v55.88H54.57a27.94,27.94,0,1,0,0-55.88Z"/><path class="cls-2" d="M324.25,218.27h2.82v-19.1l10.19,19.1h2.9V193.51h-2.83v19.1l-10.15-19.1h-2.93Zm-14.44-2.48a4.6,4.6,0,0,1-1.85-.38,4.84,4.84,0,0,1-1.52-1,5.07,5.07,0,0,1-1-1.52A4.78,4.78,0,0,1,305,211V199.74a3.84,3.84,0,0,1,1.83-3.23,3.55,3.55,0,0,1,1.85-.52h3.22a3.55,3.55,0,0,1,1.85.52,3.91,3.91,0,0,1,1.35,1.36,3.74,3.74,0,0,1,.51,1.87V211a4.78,4.78,0,0,1-.38,1.85,5.07,5.07,0,0,1-1,1.52,4.69,4.69,0,0,1-1.51,1,4.51,4.51,0,0,1-1.83.38Zm1.1,2.48a7.57,7.57,0,0,0,7.57-7.61V200.09a6.58,6.58,0,0,0-.52-2.56,6.51,6.51,0,0,0-1.4-2.09,6.44,6.44,0,0,0-2.08-1.41,6.55,6.55,0,0,0-2.54-.52h-3.15a6.61,6.61,0,0,0-2.56.52,6.42,6.42,0,0,0-2.1,1.41,6.51,6.51,0,0,0-1.4,2.09,6.58,6.58,0,0,0-.52,2.56v10.57a7.68,7.68,0,0,0,.6,3,7.58,7.58,0,0,0,4,4,7.67,7.67,0,0,0,3,.6Zm-17.29,0h2.82V193.51h-2.82Zm-21-22.28h6.54v22.28H282V196h6.54v-2.48H272.64Zm-5.06-2.48h-2.83V211a4.77,4.77,0,0,1-.37,1.85,4.87,4.87,0,0,1-1,1.52,4.69,4.69,0,0,1-1.51,1,4.52,4.52,0,0,1-1.84.38h-.75a4.6,4.6,0,0,1-1.85-.38,4.73,4.73,0,0,1-1.52-1,4.9,4.9,0,0,1-1-1.52,4.6,4.6,0,0,1-.38-1.85V193.51h-2.83v17.15a7.6,7.6,0,0,0,7.6,7.61H260a7.55,7.55,0,0,0,7-4.64,7.5,7.5,0,0,0,.59-3Zm-33.7,24.76h14.85v-2.48h-12V193.51h-2.83Zm-14.43-2.48a4.6,4.6,0,0,1-1.85-.38,4.73,4.73,0,0,1-1.52-1,4.92,4.92,0,0,1-1-1.52,4.77,4.77,0,0,1-.37-1.85V199.74a3.64,3.64,0,0,1,.5-1.87,3.82,3.82,0,0,1,1.32-1.36,3.61,3.61,0,0,1,1.85-.52h3.22a3.62,3.62,0,0,1,1.86.52,3.88,3.88,0,0,1,1.34,1.36,3.55,3.55,0,0,1,.51,1.87V211a4.77,4.77,0,0,1-.37,1.85,4.92,4.92,0,0,1-1,1.52,4.75,4.75,0,0,1-1.5,1,4.54,4.54,0,0,1-1.83.38Zm1.1,2.48a7.55,7.55,0,0,0,7-4.64,7.5,7.5,0,0,0,.59-3V200.09a6.39,6.39,0,0,0-.51-2.56,6.67,6.67,0,0,0-1.4-2.09,6.52,6.52,0,0,0-4.63-1.93h-3.15a6.61,6.61,0,0,0-2.56.52,6.55,6.55,0,0,0-3.49,3.5,6.23,6.23,0,0,0-.52,2.56v10.57a7.5,7.5,0,0,0,.59,3,7.83,7.83,0,0,0,1.63,2.41,7.56,7.56,0,0,0,5.38,2.23Zm-21.22,0a7.35,7.35,0,0,0,2.89-.59,7.44,7.44,0,0,0,2.36-1.59,7.79,7.79,0,0,0,1.59-2.36,7.49,7.49,0,0,0,.58-2.89,7.78,7.78,0,0,0-.43-2.51,7.38,7.38,0,0,0-1.2-2.16,7.18,7.18,0,0,0-1.83-1.64,7.42,7.42,0,0,0-2.34-.94l-4.77-1a2.71,2.71,0,0,1-1.27-.65,3.61,3.61,0,0,1-.88-1.17,3.44,3.44,0,0,1-.33-1.43,3.38,3.38,0,0,1,.47-1.69,3.56,3.56,0,0,1,1.23-1.21,3.41,3.41,0,0,1,1.7-.46h8.27v-2.48h-8.59a6,6,0,0,0-2.29.46,5.86,5.86,0,0,0-1.88,1.24,5.76,5.76,0,0,0-1.27,1.85,5.82,5.82,0,0,0-.47,2.29,6.09,6.09,0,0,0,.59,2.64,5.7,5.7,0,0,0,4,3.12l4.95,1a4.07,4.07,0,0,1,1.8.92,5.12,5.12,0,0,1,1.74,3.78,4.92,4.92,0,0,1-.4,1.92,5.19,5.19,0,0,1-1.07,1.58,5.12,5.12,0,0,1-1.57,1.06,4.76,4.76,0,0,1-1.91.39h-7.43v2.48Zm-34-16.2V196h6.85a3,3,0,0,1,2.59,1.51,3.08,3.08,0,0,1,.42,1.53,3,3,0,0,1-.42,1.51,3.19,3.19,0,0,1-1.08,1.11,2.93,2.93,0,0,1-1.51.42ZM178,199a5.44,5.44,0,0,0-3.35-5.08,5.52,5.52,0,0,0-2.16-.44h-10v24.76h2.83V204.58h2.47a4.55,4.55,0,0,1,1.43.22,3.33,3.33,0,0,1,2.07,1.94l4.7,11.53h3.12L174,205.89a3.8,3.8,0,0,0-.36-.69,2.35,2.35,0,0,0-.6-.62A5.39,5.39,0,0,0,175,204a6,6,0,0,0,1.59-1.23,5.48,5.48,0,0,0,1.09-1.71A5.29,5.29,0,0,0,178,199Zm-21.68-5.52h-2.82V211a4.78,4.78,0,0,1-.38,1.85,4.87,4.87,0,0,1-1,1.52,4.69,4.69,0,0,1-1.51,1,4.52,4.52,0,0,1-1.84.38H148a4.64,4.64,0,0,1-1.85-.38,4.84,4.84,0,0,1-1.52-1,5.07,5.07,0,0,1-1-1.52,4.78,4.78,0,0,1-.38-1.85V193.51h-2.83v17.15a7.68,7.68,0,0,0,.6,3,7.58,7.58,0,0,0,4,4,7.67,7.67,0,0,0,3,.6h.75a7.54,7.54,0,0,0,7.56-7.61ZM126,215.79a4.6,4.6,0,0,1-1.85-.38,4.74,4.74,0,0,1-2.54-2.54,4.6,4.6,0,0,1-.38-1.85V199.74a3.55,3.55,0,0,1,.51-1.87,3.8,3.8,0,0,1,1.31-1.36,3.62,3.62,0,0,1,1.86-.52h3.21a3.56,3.56,0,0,1,1.86.52,3.8,3.8,0,0,1,1.34,1.36,3.65,3.65,0,0,1,.52,1.87V211a4.78,4.78,0,0,1-.38,1.85,4.92,4.92,0,0,1-1,1.52,4.72,4.72,0,0,1-3.33,1.4Zm1.1,2.48a7.54,7.54,0,0,0,7.56-7.61V200.09a6.39,6.39,0,0,0-.51-2.56,6.67,6.67,0,0,0-1.4-2.09,6.52,6.52,0,0,0-4.63-1.93H125a6.63,6.63,0,0,0-2.57.52,6.48,6.48,0,0,0-2.09,1.41,6.35,6.35,0,0,0-1.4,2.09,6.58,6.58,0,0,0-.52,2.56v10.57a7.6,7.6,0,0,0,7.6,7.61Zm-18.71,0V205.18l7.07-11.67h-3.25L107,202.35l-5.23-8.84H98.5l7.07,11.67v13.09ZM81.63,196a3.7,3.7,0,0,1,1.85.51,3.88,3.88,0,0,1,1.32,1.35,3.54,3.54,0,0,1,.5,1.85v9.94a6.12,6.12,0,0,1-.46,2.38,6.27,6.27,0,0,1-1.28,2,6.05,6.05,0,0,1-1.91,1.32,5.76,5.76,0,0,1-2.36.49H75.05V196Zm-9.41,22.28h6.9a9.31,9.31,0,0,0,3.51-.7,9.11,9.11,0,0,0,4.8-4.76,8.84,8.84,0,0,0,.7-3.49v-9.26a6.23,6.23,0,0,0-.52-2.56,6.36,6.36,0,0,0-1.42-2.08,6.55,6.55,0,0,0-2.1-1.4,6.85,6.85,0,0,0-2.57-.51h-9.3Zm-19.91,0H67.16v-2.48h-12V193.51H52.31Zm-9,0h2.83V193.51H43.36Zm-6.12-24.76H34.41V211a5,5,0,0,1-.37,1.85,4.9,4.9,0,0,1-1,1.52,4.54,4.54,0,0,1-1.5,1,4.6,4.6,0,0,1-1.85.38h-.74a4.6,4.6,0,0,1-1.85-.38,4.73,4.73,0,0,1-1.52-1,4.92,4.92,0,0,1-1-1.52,4.78,4.78,0,0,1-.38-1.85V193.51H21.33v17.15a7.5,7.5,0,0,0,.59,3A7.83,7.83,0,0,0,23.55,216a7.56,7.56,0,0,0,5.38,2.23h.74a7.57,7.57,0,0,0,7.57-7.61ZM8.66,204.58a4.37,4.37,0,0,1,1.69.35,4.47,4.47,0,0,1,1.41.94,4.37,4.37,0,0,1,1,1.4,4,4,0,0,1,.36,1.7v2.4a4,4,0,0,1-.36,1.69,4.57,4.57,0,0,1-2.37,2.37,4,4,0,0,1-1.69.36H2.83V204.58Zm6.19-5.51a5.56,5.56,0,0,0-.43-2.17,5.5,5.5,0,0,0-2.92-3,5.57,5.57,0,0,0-2.17-.44H0v24.76H8.66a7.18,7.18,0,0,0,5.12-2.13,7,7,0,0,0,1.56-2.31,6.92,6.92,0,0,0,.57-2.81v-1.7a6.81,6.81,0,0,0-.24-1.78,8,8,0,0,0-.67-1.7,7.63,7.63,0,0,0-1-1.45,5.8,5.8,0,0,0-1.34-1,4.59,4.59,0,0,0,1.15-1.1,6,6,0,0,0,.79-1.48A5.13,5.13,0,0,0,14.85,199.07ZM2.83,196H9a3,3,0,0,1,1.53.43,3.13,3.13,0,0,1,1.09,1.11,3,3,0,0,1,.42,1.54,2.9,2.9,0,0,1-.42,1.5,3,3,0,0,1-1.09,1.08,3,3,0,0,1-1.53.42H2.83Z"/></g></g></svg>